HIERARCHY
ROOT hip
{
	OFFSET 0.000000 0.000000 0.000000 
	CHANNELS 6 Xposition Yposition Zposition Xrotation Zrotation Yrotation
	JOINT abdomen
	{
		OFFSET 0.000000 3.402643 0.000000 
		CHANNELS 3 Xrotation Zrotation Yrotation
		JOINT chest
		{
			OFFSET 0.000000 8.438565 -0.680529 
			CHANNELS 3 Xrotation Zrotation Yrotation
			JOINT neck
			{
				OFFSET 0.000000 10.207942 -0.272212 
				CHANNELS 3 Xrotation Zrotation Yrotation
				JOINT head
				{
					OFFSET 0.000000 3.130431 0.000000 
					CHANNELS 3 Xrotation Zrotation Yrotation
					End Site
					{
						OFFSET 0.000000 3.130435 0.000000 
					}
				}
			}
			JOINT lCollar
			{
				OFFSET 3.470700 6.669187 -0.816635 
				CHANNELS 3 Yrotation Zrotation Xrotation
				JOINT lShldr
				{
					OFFSET 3.198488 0.000000 0.000000 
					CHANNELS 3 Zrotation Yrotation Xrotation
					JOINT lForeArm
					{
						OFFSET 10.139888 0.000000 0.000000 
						CHANNELS 3 Yrotation Zrotation Xrotation
						JOINT lHand
						{
							OFFSET 8.370511 0.000000 0.000000 
							CHANNELS 3 Zrotation Yrotation Xrotation
							End Site
							{
								OFFSET 4.083176 0.000000 0.000000 
							}
						}
					}
				}
			}
			JOINT rCollar
			{
				OFFSET -3.470700 6.669187 -0.816635 
				CHANNELS 3 Yrotation Zrotation Xrotation
				JOINT rShldr
				{
					OFFSET -3.198488 0.000000 0.000000 
					CHANNELS 3 Zrotation Yrotation Xrotation
					JOINT rForeArm
					{
						OFFSET -10.139888 0.000000 0.000000 
						CHANNELS 3 Yrotation Zrotation Xrotation
						JOINT rHand
						{
							OFFSET -8.370511 0.000000 0.000000 
							CHANNELS 3 Zrotation Yrotation Xrotation
							End Site
							{
								OFFSET -4.083176 0.000000 0.000000 
							}
						}
					}
				}
			}
		}
	}
	JOINT lThigh
	{
		OFFSET 5.308129 -1.633274 1.361059 
		CHANNELS 3 Xrotation Zrotation Yrotation
		JOINT lShin
		{
			OFFSET -2.041588 -20.007561 0.000000 
			CHANNELS 3 Xrotation Zrotation Yrotation
			JOINT lFoot
			{
				OFFSET 0.000000 -19.190928 -1.224953 
				CHANNELS 3 Xrotation Yrotation Zrotation
				End Site
				{
					OFFSET 0.000000 -2.449906 4.627600 
				}
			}
		}
	}
	JOINT rThigh
	{
		OFFSET -5.308129 -1.633274 1.361059 
		CHANNELS 3 Xrotation Zrotation Yrotation
		JOINT rShin
		{
			OFFSET 2.041588 -20.007561 0.000000 
			CHANNELS 3 Xrotation Zrotation Yrotation
			JOINT rFoot
			{
				OFFSET 0.000000 -19.190928 -1.224953 
				CHANNELS 3 Xrotation Yrotation Zrotation
				End Site
				{
					OFFSET 0.000000 -2.449906 4.627600 
				}
			}
		}
	}
}
MOTION
Frames: 13
Frame Time: 0.016667
-0.352405 41.760288 6.343019 -4.011070 -13.717600 -25.142799 -24.646500 1.066450 -2.010920 19.500500 3.026830 -0.690463 5.247600 4.161690 -12.388300 8.897120 6.840280 -5.870540 2.000000 -2.000000 0.000000 0.588805 -3.374040 105.323997 62.666500 -0.277626 0.121504 0.172873 -0.166939 144.660004 -2.000000 2.000000 0.000000 11.545600 -13.566200 99.055603 -62.949699 0.277024 0.121766 -0.171742 0.164306 148.664001 9.512105 4.788525 -2.913938 31.824436 4.405520 1.958948 -45.641171 17.206942 16.133375 13.164216 7.558372 20.755743 8.970039 -8.213195 -0.419220 -17.056868 -6.809551 1.270984 
-0.376240 41.766331 6.287366 -3.890620 -13.729300 -25.423901 -24.666300 1.087390 -2.010450 19.480900 3.056100 -0.692043 5.466790 4.050570 -12.036300 8.935610 6.771690 -5.705690 2.000000 -2.000000 0.000000 0.559442 -3.334960 105.352997 62.705601 -0.277543 0.121547 0.173302 -0.167026 144.503998 -2.000000 2.000000 0.000000 11.662700 -13.566100 99.026299 -62.900902 0.277128 0.121713 -0.171531 0.164247 148.742004 9.446831 4.851665 -2.734884 31.775730 4.400695 1.957690 -45.687180 17.180349 16.158644 13.099645 7.499067 21.019903 8.700253 -8.028900 -0.408563 -16.937950 -6.800055 1.194639 
-0.399856 41.771858 6.227176 -3.791370 -13.808800 -25.705700 -24.696301 1.107580 -1.956390 19.392900 3.007190 -0.666443 6.156760 3.875740 -11.255000 9.130570 6.633090 -5.334570 2.000000 -2.000000 0.000000 0.598460 -3.315420 105.373001 62.637199 -0.277688 0.121472 0.173972 -0.167160 144.259995 -2.000000 2.000000 0.000000 11.887600 -13.790800 99.153198 -62.910702 0.277107 0.121724 -0.171110 0.164128 148.899002 9.410830 4.964005 -2.549639 31.785519 4.401336 1.957788 -45.773361 17.138350 16.167841 13.047530 7.525066 21.261284 8.505766 -7.878638 -0.403432 -16.866537 -6.838615 1.110441 
-0.423472 41.777260 6.166986 -3.692060 -13.888300 -25.987801 -24.726200 1.124350 -1.911470 19.314800 2.948530 -0.649744 6.836520 3.691920 -10.471600 9.325320 6.484780 -4.954360 2.000000 -2.000000 0.000000 0.637478 -3.295880 105.391998 62.568901 -0.277833 0.121397 0.174670 -0.167296 144.005997 -2.000000 2.000000 0.000000 12.112600 -14.015500 99.279999 -62.920399 0.277087 0.121734 -0.170689 0.164009 149.054993 9.382782 5.079479 -2.354220 31.842184 4.418198 1.952714 -45.897243 17.131828 16.169880 12.927138 7.673425 21.481756 8.554148 -7.911830 -0.387312 -16.889368 -6.948082 1.136717 
-0.443032 41.783047 6.122510 -3.631410 -13.869700 -26.132401 -24.775299 1.119700 -1.868050 19.236601 2.919150 -0.623792 7.424690 3.591260 -9.627480 9.481310 6.385580 -4.545550 2.000000 -2.000000 0.000000 0.618546 -3.540180 105.128998 62.451698 -0.278081 0.121268 0.173891 -0.167144 144.289001 -2.000000 2.000000 0.000000 12.239800 -14.269400 99.367798 -62.881401 0.277170 0.121692 -0.170637 0.163994 149.074005 9.333827 5.118164 -2.258197 31.755096 4.408073 1.959695 -45.793346 17.048292 16.111784 12.864658 7.644131 21.575788 8.421182 -7.810625 -0.388100 -16.917456 -7.002516 1.059909 
-0.462594 41.788830 6.078036 -3.580820 -13.850900 -26.262400 -24.824499 1.115080 -1.824790 19.148600 2.899520 -0.608258 8.012680 3.481820 -8.777920 9.637390 6.296100 -4.126560 2.000000 -2.000000 0.000000 0.599591 -3.784480 104.875000 62.344299 -0.278308 0.121150 0.173087 -0.166982 144.582001 -2.000000 2.000000 0.000000 12.367000 -14.513600 99.455498 -62.842300 0.277252 0.121649 -0.170584 0.163978 149.093994 9.238397 5.140801 -2.142749 31.830643 4.431731 1.956470 -45.825615 16.998501 16.059982 12.905104 7.449276 21.697046 7.946218 -7.470608 -0.336023 -16.766644 -7.016829 0.862749 
-0.486910 41.791664 6.020879 -3.590420 -13.821500 -26.310699 -24.668600 1.136160 -1.797250 19.373400 2.938830 -0.587935 8.658630 3.165170 -7.539030 9.811550 6.089790 -3.493080 2.000000 -2.000000 0.000000 0.473449 -3.843290 104.523003 62.236801 -0.278535 0.121030 0.172659 -0.166894 144.738007 -2.000000 2.000000 0.000000 12.503500 -14.787000 99.348000 -62.773998 0.277398 0.121575 -0.170426 0.163933 149.153000 9.233821 5.251330 -1.889854 31.793140 4.419322 1.962816 -45.554653 16.895319 15.848575 12.808031 7.559899 21.690804 8.109935 -7.597544 -0.357346 -16.889116 -7.148432 0.913494 
-0.511226 41.794495 5.963732 -3.600020 -13.792100 -26.358999 -24.512699 1.162710 -1.782850 19.588499 2.978090 -0.567812 9.295010 2.842410 -6.292150 9.995590 5.893120 -2.858850 2.000000 -2.000000 0.000000 0.347286 -3.892320 104.181999 62.129398 -0.278761 0.120911 0.172230 -0.166805 144.895004 -2.000000 2.000000 0.000000 12.639900 -15.070100 99.230598 -62.705601 0.277543 0.121500 -0.170295 0.163895 149.201004 9.194995 5.340586 -1.628751 31.792038 4.424975 1.954677 -45.283024 16.799719 15.633402 12.752012 7.599034 21.678686 8.133328 -7.615592 -0.358464 -16.939695 -7.250576 0.897363 
-0.526308 41.797066 5.916326 -3.570160 -13.812100 -26.316000 -24.513300 1.174390 -1.723940 19.500601 2.899900 -0.551411 10.219800 2.396830 -5.410630 10.316000 5.617120 -2.406390 2.000000 -2.000000 0.000000 0.200398 -3.794560 104.357002 62.129398 -0.278761 0.120911 0.172873 -0.166939 144.660004 -2.000000 2.000000 0.000000 12.728300 -15.490100 99.396500 -62.637199 0.277688 0.121425 -0.170374 0.163918 149.171997 9.120230 5.525464 -1.402882 31.744339 4.415265 1.961647 -44.976295 16.607519 15.369585 12.756866 7.605973 21.602568 7.954422 -7.477342 -0.356374 -16.892538 -7.273385 0.821448 
-0.541391 41.799503 5.868929 -3.550500 -13.841600 -26.260300 -24.523500 1.177070 -1.661240 19.422501 2.811950 -0.524331 11.135000 1.944510 -4.538170 10.636300 5.350970 -1.946120 2.000000 -2.000000 0.000000 0.053510 -3.696800 104.532997 62.139198 -0.278741 0.120922 0.173516 -0.167069 144.425995 -2.000000 2.000000 0.000000 12.826400 -15.919900 99.552498 -62.568901 0.277832 0.121350 -0.170453 0.163941 149.143005 8.975211 5.704679 -1.165365 31.851122 4.425655 1.954768 -44.773808 16.409313 15.091318 12.735687 7.656368 21.529324 7.842328 -7.395084 -0.330144 -16.877357 -7.324699 0.737558 
-0.557878 41.801178 5.814166 -3.598970 -13.723900 -26.021299 -24.553101 1.154260 -1.555390 19.275900 2.704400 -0.480293 11.581800 1.872160 -3.283140 10.703900 5.272490 -1.294510 2.000000 -2.000000 0.000000 -0.200984 -3.716170 104.787003 62.012199 -0.279008 0.120780 0.173945 -0.167154 144.270004 -2.000000 2.000000 0.000000 13.002400 -16.339800 99.620598 -62.529800 0.277915 0.121307 -0.169927 0.163789 149.337997 8.829665 5.797531 -1.010571 31.911592 4.418305 1.962433 -44.276775 16.251623 14.739512 12.785936 7.485858 21.235304 7.555846 -7.156079 -0.310123 -16.843214 -7.312486 0.592185 
-0.574365 41.802853 5.759389 -3.647420 -13.606200 -25.782600 -24.592501 1.131370 -1.449720 19.139200 2.606630 -0.445271 12.021300 1.801140 -2.040860 10.781400 5.193900 -0.632437 2.000000 -2.000000 0.000000 -0.455455 -3.735560 105.030998 61.885300 -0.279276 0.120637 0.174374 -0.167239 144.113007 -2.000000 2.000000 0.000000 13.178300 -16.769501 99.679001 -62.490799 0.277998 0.121264 -0.169403 0.163634 149.533005 8.752264 5.889595 -0.837765 31.855473 4.396995 1.967038 -43.752285 16.055468 14.351089 12.650251 7.636705 20.936054 7.891078 -7.401599 -0.351361 -17.136196 -7.378782 0.668229 
-0.583558 41.809669 5.729586 -3.715310 -13.449300 -25.395500 -24.533800 1.108820 -1.426960 19.197901 2.548110 -0.431454 12.411400 1.769930 -1.230150 10.888600 5.144040 -0.199722 2.000000 -2.000000 0.000000 -0.757455 -3.979890 104.709000 61.689999 -0.279686 0.120417 0.173704 -0.167106 144.358002 -2.000000 2.000000 0.000000 13.256000 -16.867100 99.493401 -62.422401 0.278142 0.121189 -0.169088 0.163541 149.651001 8.601936 5.900573 -0.902909 31.857279 4.385551 1.973572 -43.401276 15.836530 14.011934 12.637802 7.581809 20.504824 7.840687 -7.411108 -0.329871 -17.167143 -7.465684 0.628316 
